<?xml version="1.0" standalone="no"?>
<!DOCTYPE svg PUBLIC "-//W3C//DTD SVG 20010904//EN"
 "http://www.w3.org/TR/2001/REC-SVG-20010904/DTD/svg10.dtd">
<svg version="1.0" xmlns="http://www.w3.org/2000/svg"
 width="260.000000pt" height="260.000000pt" viewBox="0 0 260.000000 260.000000"
 preserveAspectRatio="xMidYMid meet">
<metadata>
Created by potrace 1.14, written by Peter Selinger 2001-2017
</metadata>
<g transform="translate(0.000000,260.000000) scale(0.100000,-0.100000)"
fill="#000000" stroke="none">
<path d="M1055 2575 c-142 -30 -214 -54 -325 -109 -140 -70 -226 -132 -345
-251 -264 -263 -388 -572 -380 -945 2 -80 6 -158 10 -175 21 -101 28 -128 51
-200 60 -189 161 -353 313 -506 196 -197 402 -307 676 -364 92 -19 135 -23
265 -20 164 3 246 16 385 61 143 47 334 152 426 235 19 17 48 43 64 58 193
173 344 461 389 742 14 82 14 330 2 394 -4 17 -11 53 -16 80 -29 142 -102 313
-195 455 -62 94 -247 280 -342 343 -139 92 -316 168 -458 197 -27 5 -63 12
-80 16 -16 3 -97 7 -180 9 -125 2 -168 -1 -260 -20z"/>
</g>
</svg>
